<svg width="19" height="20" viewBox="0 0 19 20" fill="none" xmlns="http://www.w3.org/2000/svg">
<path d="M9.16667 0.3125C4.26225 0.3125 0.286457 4.64973 0.286457 10C0.286457 15.3503 4.26225 19.6875 9.16667 19.6875C14.0711 19.6875 18.0469 15.3503 18.0469 10C18.0469 4.64973 14.0711 0.3125 9.16667 0.3125ZM13.3609 13.8575C13.3039 13.9305 11.9366 15.6439 9.42745 15.6439C6.39486 15.6439 4.25387 13.1728 4.25387 9.9577C4.25387 6.7818 6.47406 4.35609 9.4016 4.35609C11.7991 4.35609 13.0527 5.81371 13.1049 5.87578C13.1691 5.95222 13.2084 6.04977 13.2164 6.15313C13.2244 6.2565 13.2008 6.35985 13.1492 6.44699L12.3478 7.8007C12.2028 8.04551 11.8904 8.08785 11.6949 7.89035C11.6866 7.88199 10.745 6.95754 9.47915 6.95754C7.82787 6.95754 6.83242 8.26906 6.83242 9.92949C6.83242 11.4764 7.74601 13.0425 9.49208 13.0425C10.8777 13.0425 11.8296 11.9355 11.839 11.9243C12.0228 11.7069 12.3424 11.7277 12.5018 11.9654L13.3807 13.2768C13.4378 13.362 13.4668 13.4656 13.4632 13.5709C13.4597 13.6763 13.4236 13.7773 13.3609 13.8575Z" fill="white"/>
</svg>
