<svg width="22" height="24" viewBox="0 0 22 24" fill="none" xmlns="http://www.w3.org/2000/svg">
<g clip-path="url(#clip0)">
<path d="M7.35847 19.6281C7.35847 19.7219 7.25645 19.7969 7.12782 19.7969C6.98145 19.8109 6.87944 19.7359 6.87944 19.6281C6.87944 19.5344 6.98145 19.4594 7.11008 19.4594C7.24314 19.4453 7.35847 19.5203 7.35847 19.6281ZM5.97903 19.4172C5.94798 19.5109 6.03669 19.6187 6.16976 19.6469C6.28508 19.6937 6.41815 19.6469 6.44476 19.5531C6.47137 19.4594 6.3871 19.3516 6.25403 19.3094C6.13871 19.2766 6.01008 19.3234 5.97903 19.4172ZM7.93952 19.3375C7.81089 19.3703 7.72218 19.4594 7.73548 19.5672C7.74879 19.6609 7.86411 19.7219 7.99718 19.6891C8.12581 19.6562 8.21452 19.5672 8.20121 19.4734C8.1879 19.3844 8.06814 19.3234 7.93952 19.3375ZM10.8581 1.375C4.70605 1.375 0 6.31094 0 12.8125C0 18.0109 3.09597 22.4594 7.51815 24.025C8.08589 24.1328 8.28548 23.7625 8.28548 23.4578C8.28548 23.1672 8.27218 21.5641 8.27218 20.5797C8.27218 20.5797 5.16734 21.2828 4.51532 19.1828C4.51532 19.1828 4.00968 17.8187 3.28226 17.4672C3.28226 17.4672 2.26653 16.7312 3.35323 16.7453C3.35323 16.7453 4.45766 16.8391 5.06532 17.9547C6.03669 19.7641 7.66452 19.2437 8.29879 18.9344C8.40081 18.1844 8.68911 17.6641 9.00847 17.3547C6.52903 17.0641 4.02742 16.6844 4.02742 12.175C4.02742 10.8859 4.36452 10.2391 5.07419 9.41406C4.95887 9.10938 4.58185 7.85312 5.18952 6.23125C6.11653 5.92656 8.25 7.49688 8.25 7.49688C9.1371 7.23438 10.0907 7.09844 11.0355 7.09844C11.9802 7.09844 12.9339 7.23438 13.821 7.49688C13.821 7.49688 15.9544 5.92188 16.8815 6.23125C17.4891 7.85781 17.1121 9.10938 16.9968 9.41406C17.7065 10.2437 18.1411 10.8906 18.1411 12.175C18.1411 16.6984 15.5286 17.0594 13.0492 17.3547C13.4573 17.725 13.8032 18.4281 13.8032 19.5297C13.8032 21.1094 13.7899 23.0641 13.7899 23.4484C13.7899 23.7531 13.994 24.1234 14.5573 24.0156C18.9927 22.4594 22 18.0109 22 12.8125C22 6.31094 17.0101 1.375 10.8581 1.375ZM4.31129 17.5422C4.25363 17.5891 4.26694 17.6969 4.34234 17.7859C4.41331 17.8609 4.51532 17.8938 4.57298 17.8328C4.63064 17.7859 4.61734 17.6781 4.54194 17.5891C4.47097 17.5141 4.36895 17.4812 4.31129 17.5422ZM3.83226 17.1625C3.80121 17.2234 3.84556 17.2984 3.93427 17.3453C4.00524 17.3922 4.09395 17.3781 4.125 17.3125C4.15605 17.2516 4.11169 17.1766 4.02298 17.1297C3.93427 17.1016 3.86331 17.1156 3.83226 17.1625ZM5.26935 18.8312C5.19839 18.8922 5.225 19.0328 5.32702 19.1219C5.42903 19.2297 5.55766 19.2437 5.61532 19.1688C5.67298 19.1078 5.64637 18.9672 5.55766 18.8781C5.46008 18.7703 5.32702 18.7563 5.26935 18.8312ZM4.76371 18.1422C4.69274 18.1891 4.69274 18.3109 4.76371 18.4188C4.83468 18.5266 4.95444 18.5734 5.0121 18.5266C5.08306 18.4656 5.08306 18.3438 5.0121 18.2359C4.95 18.1281 4.83468 18.0813 4.76371 18.1422Z" fill="#19D938"/>
</g>
<defs>
<clipPath id="clip0">
<rect width="22" height="24" fill="white"/>
</clipPath>
</defs>
</svg>
