<svg width="22" height="24" viewBox="0 0 22 24" fill="none" xmlns="http://www.w3.org/2000/svg">
<path d="M4.92446 21H0.363393V6.97971H4.92446V21ZM2.64147 5.06721C1.18299 5.06721 0 3.91408 0 2.52189C1.04392e-08 1.85318 0.278297 1.21185 0.77367 0.738991C1.26904 0.266136 1.94091 0.000488281 2.64147 0.000488281C3.34204 0.000488281 4.0139 0.266136 4.50928 0.738991C5.00465 1.21185 5.28295 1.85318 5.28295 2.52189C5.28295 3.91408 4.09946 5.06721 2.64147 5.06721ZM21.9951 21H17.4438V14.175C17.4438 12.5485 17.4095 10.4625 15.0725 10.4625C12.7011 10.4625 12.3377 12.2297 12.3377 14.0578V21H7.78152V6.97971H12.156V8.89221H12.2198C12.8287 7.79064 14.3162 6.62814 16.5354 6.62814C21.1514 6.62814 22 9.52971 22 13.2985V21H21.9951Z" fill="#19D938"/>
</svg>
