<svg width="22" height="24" viewBox="0 0 22 24" fill="none" xmlns="http://www.w3.org/2000/svg">
<path d="M19.7386 8.11163C19.7525 8.32482 19.7525 8.53805 19.7525 8.75124C19.7525 15.2537 15.2157 22.7461 6.92386 22.7461C4.36928 22.7461 1.9962 21.939 0 20.538C0.362957 20.5837 0.711906 20.5989 1.08883 20.5989C3.19666 20.5989 5.13704 19.8223 6.68654 18.4974C4.7043 18.4517 3.04313 17.0355 2.47079 15.0863C2.75 15.1319 3.02917 15.1624 3.32234 15.1624C3.72715 15.1624 4.132 15.1014 4.50888 14.9949C2.4429 14.538 0.893363 12.5583 0.893363 10.1675V10.1066C1.49359 10.4721 2.19162 10.7005 2.93141 10.7309C1.71695 9.84764 0.921293 8.34005 0.921293 6.63446C0.921293 5.72077 1.1446 4.88321 1.53549 4.15224C3.75504 7.137 7.09135 9.08621 10.8324 9.29944C10.7626 8.93396 10.7207 8.55328 10.7207 8.17257C10.7207 5.46188 12.7309 3.25378 15.2296 3.25378C16.5278 3.25378 17.7004 3.84769 18.524 4.80708C19.543 4.59389 20.5202 4.18271 21.3857 3.61927C21.0506 4.76142 20.3387 5.72082 19.4035 6.32991C20.3109 6.22336 21.1903 5.94919 21.9999 5.56852C21.3858 6.5431 20.618 7.41108 19.7386 8.11163Z" fill="#19D938"/>
</svg>
